<svg width="14" height="16" viewBox="0 0 14 16" fill="none" xmlns="http://www.w3.org/2000/svg">
<path d="M6.41309 0.0559082C6.62658 -0.0186576 6.85975 -0.0186576 7.07324 0.0559082L12.8154 2.06177C13.2168 2.20196 13.4863 2.58092 13.4863 3.0061V7.79028C13.4863 11.7902 8.62257 14.6581 7.15625 15.4319C6.89521 15.5695 6.5901 15.5696 6.3291 15.4319C4.86233 14.6578 0 11.7898 0 7.79028V3.0061C0 2.58092 0.269491 2.20196 0.670898 2.06177L6.41309 0.0559082ZM6.3623 10.9026C6.27518 10.9025 6.1906 10.9325 6.12305 10.9875C6.05549 11.0426 6.00875 11.1199 5.99121 11.2053C5.93359 11.4689 5.89648 11.5852 5.89648 11.5852C5.88157 11.6325 5.8766 11.6823 5.88086 11.7317C5.88514 11.7813 5.89892 11.8301 5.92188 11.8743C5.94481 11.9183 5.97663 11.9576 6.01465 11.9895C6.05255 12.0212 6.09643 12.0449 6.14355 12.0598C6.19102 12.0747 6.24146 12.0808 6.29102 12.0764C6.34051 12.072 6.38858 12.0575 6.43262 12.0344C6.47667 12.0113 6.516 11.9799 6.54785 11.9417C6.57967 11.9035 6.60337 11.8592 6.61816 11.8118C6.61816 11.8118 6.66789 11.6527 6.73047 11.3665C6.74325 11.3112 6.74284 11.2538 6.73047 11.1985C6.71802 11.143 6.69346 11.0907 6.6582 11.0461C6.62285 11.0015 6.57758 10.9655 6.52637 10.9407C6.47518 10.9159 6.41918 10.9027 6.3623 10.9026ZM8.03809 9.90161C7.94438 9.90151 7.85377 9.93646 7.78418 9.99927C7.71472 10.062 7.67074 10.1483 7.66113 10.2415C7.57471 10.9887 7.49342 11.4982 7.49121 11.512C7.48334 11.5611 7.48555 11.612 7.49707 11.6604C7.50859 11.7086 7.52957 11.754 7.55859 11.7942C7.58774 11.8345 7.62466 11.8687 7.66699 11.8948C7.70933 11.9208 7.75658 11.9387 7.80566 11.9465C7.85467 11.9543 7.90485 11.9522 7.95312 11.9407C8.00133 11.9292 8.04675 11.9082 8.08691 11.8792C8.12712 11.85 8.16148 11.813 8.1875 11.7708C8.21354 11.7284 8.23141 11.6812 8.23926 11.6321C8.23926 11.6321 8.32374 11.1018 8.41309 10.3293C8.42 10.2761 8.41602 10.2216 8.40039 10.1702C8.3847 10.1187 8.35778 10.0709 8.32227 10.0305C8.28683 9.99019 8.24322 9.95796 8.19434 9.93579C8.14532 9.91361 8.09188 9.90159 8.03809 9.90161ZM6.73047 5.27271C5.69091 5.27289 4.83994 6.12409 4.83984 7.16431C4.83984 9.79566 4.48118 11.1831 4.47461 11.2083C4.45981 11.257 4.4545 11.309 4.45996 11.3596C4.46545 11.41 4.48115 11.4589 4.50586 11.5032C4.53071 11.5476 4.56422 11.5872 4.60449 11.6184C4.6447 11.6495 4.69107 11.6719 4.74023 11.6848C4.78949 11.6977 4.84124 11.7001 4.8916 11.6926C4.94171 11.6852 4.98995 11.6682 5.0332 11.6418C5.07663 11.6153 5.11498 11.5798 5.14453 11.5383C5.17405 11.4969 5.19511 11.4494 5.20605 11.3997C5.21337 11.3712 5.59668 9.86489 5.59668 7.16431C5.59677 6.53315 6.09972 6.02972 6.73047 6.02954C7.36137 6.02954 7.86514 6.53304 7.86523 7.16431C7.86523 7.61752 7.8459 8.09083 7.81641 8.55103C7.81283 8.60083 7.81913 8.65113 7.83496 8.69849C7.85081 8.7458 7.87639 8.7898 7.90918 8.82739C7.94191 8.86482 7.9818 8.89521 8.02637 8.91724C8.07115 8.93935 8.12008 8.95313 8.16992 8.9563C8.2196 8.95944 8.26932 8.95196 8.31641 8.93579C8.36363 8.91954 8.40797 8.89475 8.44531 8.86157C8.48264 8.8284 8.51247 8.78742 8.53418 8.74243C8.55584 8.69748 8.56855 8.64871 8.57129 8.59888C8.60154 8.12673 8.62207 7.63889 8.62207 7.16431C8.62198 6.12398 7.77018 5.27271 6.73047 5.27271ZM6.73047 3.75903C6.334 3.75907 5.9517 3.82679 5.59668 3.95239C5.54982 3.96898 5.50667 3.99529 5.46973 4.02856C5.4328 4.06183 5.40226 4.10186 5.38086 4.14673C5.35959 4.19143 5.34737 4.23987 5.34473 4.28931C5.34212 4.33897 5.34962 4.38891 5.36621 4.43579C5.38279 4.48265 5.40817 4.5258 5.44141 4.56274C5.47466 4.5997 5.51471 4.6302 5.55957 4.65161C5.60442 4.673 5.65351 4.68515 5.70312 4.68774C5.75258 4.69029 5.80195 4.68278 5.84863 4.66626C6.12408 4.56877 6.42015 4.51591 6.73047 4.51587C8.19674 4.51587 9.37784 5.69717 9.37793 7.16431C9.37793 8.28101 9.00391 10.8235 9.00391 10.8235C8.99443 10.8735 8.99501 10.9251 9.00586 10.9749C9.01669 11.0245 9.03806 11.0711 9.06738 11.1125C9.09681 11.154 9.13443 11.1894 9.17773 11.2161C9.22098 11.2427 9.26914 11.2602 9.31934 11.2678C9.36966 11.2754 9.42144 11.2728 9.4707 11.26C9.51987 11.2472 9.56617 11.2246 9.60645 11.1936C9.64666 11.1626 9.68016 11.1236 9.70508 11.0793C9.72998 11.035 9.74634 10.9863 9.75195 10.9358C9.75476 10.9175 10.1348 8.43585 10.1348 7.16431C10.1347 5.28811 8.60554 3.75903 6.73047 3.75903ZM4.3291 4.92114C4.27425 4.92405 4.22042 4.93839 4.17188 4.96411C4.12344 4.98981 4.08103 5.02592 4.04785 5.06958C3.59716 5.64691 3.32719 6.3765 3.32715 7.16431C3.32715 8.93889 3.03397 10.093 3.03223 10.0999C3.01851 10.1484 3.01532 10.1992 3.02148 10.2493C3.02769 10.2993 3.04324 10.3481 3.06836 10.3918C3.09353 10.4356 3.12782 10.4736 3.16797 10.5042C3.2081 10.5346 3.25394 10.5571 3.30273 10.5696C3.35166 10.5821 3.40319 10.5849 3.45312 10.5774C3.50297 10.5698 3.55073 10.5519 3.59375 10.5256C3.6368 10.4993 3.67466 10.4651 3.7041 10.4241C3.7335 10.3831 3.75441 10.3365 3.76562 10.2874C3.76563 10.2874 4.08398 9.02913 4.08398 7.16431C4.08402 6.5484 4.29261 5.98495 4.64355 5.5354C4.68916 5.47852 4.71718 5.4097 4.72461 5.33716C4.73202 5.26456 4.71875 5.19119 4.68555 5.12622C4.65228 5.06122 4.60035 5.0074 4.53711 4.97095C4.47396 4.93458 4.40186 4.91737 4.3291 4.92114ZM6.72461 6.78052C6.62463 6.78215 6.52967 6.82402 6.45996 6.89575C6.39021 6.96762 6.35121 7.06414 6.35254 7.16431C6.35254 8.19321 6.29689 9.04208 6.22461 9.71118C6.21828 9.76107 6.22189 9.81215 6.23535 9.8606C6.24882 9.90895 6.27262 9.95401 6.30371 9.99341C6.33482 10.0328 6.37311 10.0658 6.41699 10.0901C6.46098 10.1144 6.5096 10.1296 6.55957 10.135C6.60948 10.1404 6.6599 10.1357 6.70801 10.1213C6.75617 10.107 6.80099 10.0829 6.83984 10.051C6.87863 10.0192 6.91111 9.98019 6.93457 9.93579C6.95804 9.89135 6.97209 9.8423 6.97656 9.79224C7.05175 9.09614 7.10938 8.22019 7.10938 7.16431C7.11004 7.11378 7.10007 7.06366 7.08105 7.01685C7.06203 6.97005 7.03375 6.92756 6.99805 6.89185C6.96236 6.8562 6.91976 6.82782 6.87305 6.80884C6.82614 6.78985 6.7752 6.77973 6.72461 6.78052ZM10.7031 4.60083C10.6376 4.60195 10.573 4.62017 10.5166 4.65356C10.4603 4.68695 10.4133 4.73443 10.3809 4.79126C10.3484 4.84805 10.3313 4.91238 10.3311 4.97778C10.3309 5.0433 10.3477 5.10823 10.3799 5.16528C10.705 5.75872 10.8906 6.43839 10.8906 7.16431C10.8906 7.57912 10.8291 7.97808 10.7158 8.35571C10.6995 8.40368 10.6936 8.45459 10.6973 8.50513C10.701 8.55579 10.7151 8.60545 10.7383 8.65063C10.7615 8.69578 10.7931 8.7363 10.832 8.7688C10.871 8.80123 10.9164 8.82542 10.9648 8.84009C11.0134 8.85472 11.0648 8.85926 11.1152 8.85376C11.1656 8.84823 11.2145 8.83263 11.2588 8.80786C11.3031 8.78303 11.342 8.74939 11.373 8.70923C11.4041 8.669 11.4275 8.62267 11.4404 8.57349C11.5743 8.1271 11.6465 7.6537 11.6465 7.16431C11.6465 6.30958 11.4281 5.50324 11.0439 4.802C11.0112 4.74033 10.9615 4.68904 10.9014 4.65356C10.8413 4.61811 10.7728 4.59967 10.7031 4.60083ZM2.18555 6.47388C2.09196 6.47833 2.00298 6.51814 1.93652 6.58423C1.87029 6.65027 1.83119 6.73883 1.82617 6.83228C1.81881 6.94206 1.81446 7.05286 1.81445 7.16431C1.81445 7.57847 1.86628 7.9806 1.96289 8.3645C1.9744 8.41334 1.99593 8.45964 2.02539 8.50024C2.05481 8.54074 2.09203 8.5748 2.13477 8.60083C2.17749 8.62682 2.22498 8.64409 2.27441 8.65161C2.324 8.6591 2.3752 8.65703 2.42383 8.64478C2.47232 8.63252 2.51758 8.61032 2.55762 8.58032C2.59764 8.55032 2.63185 8.51308 2.65723 8.46997C2.68263 8.42671 2.69932 8.37809 2.70605 8.32837C2.71274 8.27875 2.70923 8.2283 2.69629 8.17993C2.61446 7.85481 2.57129 7.51515 2.57129 7.16431C2.57129 7.06942 2.57483 6.97583 2.58105 6.88306C2.58541 6.82947 2.57766 6.77548 2.55957 6.72485C2.54145 6.67422 2.51294 6.62777 2.47559 6.58911C2.43819 6.55043 2.39278 6.52005 2.34277 6.50024C2.29282 6.48047 2.2392 6.47131 2.18555 6.47388ZM6.73047 2.24536C4.69784 2.2455 2.94793 3.48335 2.20117 5.24927C2.18085 5.29513 2.16902 5.34462 2.16797 5.39478C2.16694 5.44481 2.17602 5.49469 2.19434 5.54126C2.21279 5.58801 2.24128 5.63127 2.27637 5.66724C2.31138 5.70302 2.35332 5.73171 2.39941 5.75122C2.44546 5.77068 2.49494 5.7803 2.54492 5.78052C2.59501 5.78067 2.64514 5.77139 2.69141 5.7522C2.73779 5.7329 2.78012 5.70396 2.81543 5.66821C2.85059 5.63258 2.87874 5.59063 2.89746 5.54419C3.52865 4.05157 5.00443 3.00233 6.73047 3.0022C7.74884 3.0022 8.67725 3.36665 9.40039 3.9729C9.43843 4.00482 9.48292 4.02828 9.53027 4.04321C9.57757 4.05812 9.62736 4.06412 9.67676 4.05981C9.72619 4.05547 9.77434 4.04075 9.81836 4.01782C9.86229 3.99491 9.90173 3.96397 9.93359 3.92603C9.96551 3.88793 9.98997 3.84356 10.0049 3.79614C10.0198 3.74884 10.0248 3.69906 10.0205 3.64966C10.0161 3.60014 10.0025 3.55116 9.97949 3.50708C9.95656 3.46316 9.92466 3.42466 9.88672 3.39282C9.03293 2.677 7.92962 2.24536 6.73047 2.24536Z" fill="black"/>
</svg>
